# xmcd
# Track frame offsets:
# 150
# 13407
# 23637
# 33827
# 45720
# 56695
# 66522
# 77810
# 90382
# 99532
# 113202
# 125282
#
# Disc length: 1809 seconds
# Revision: 0
# Processed by: cddbd v1.4PL0 Copyright (c) Steve Scherf et al.
# Submitted via: VisiTrax 2.9.5.181 - For more info visit www.synapsa.com
#
DISCID=98070f0c
DTITLE=Various Artist - Classic Country
DYEAR=1900
DGENRE=Country
TTITLE0=Jerry Lee Lewis - Whole Lotta' Shakin' Goin' On
TTITLE1=Johnny Cash - Get Rhythm
TTITLE2=Roy Orbison - Ooby Dooby
TTITLE3=Don Gibson - Oh, Lonesome Me
TTITLE4=Charlie Rich - Unchained Melody
TTITLE5=Carl Perkins - Matchbox
TTITLE6=Lorrie Morgan - Tell Me I'm Dreaming
TTITLE7=Don Gibson - Cold, Cold Heart
TTITLE8=Dave Dudley - Tuck Drivin' Man
TTITLE9=Patti Page - Tennessee Waltz
TTITLE10=Roy Acuff - Wabash Cannonball
TTITLE11=Webb Pierce - In the Jailhouse Now
EXTD=
EXTT0=
EXTT1=
EXTT2=
EXTT3=
EXTT4=
EXTT5=
EXTT6=
EXTT7=
EXTT8=
EXTT9=
EXTT10=
EXTT11=
PLAYORDER=
